<svg width="30" height="30" viewBox="0 0 30 30" fill="none" xmlns="http://www.w3.org/2000/svg">
<path fill-rule="evenodd" clip-rule="evenodd" d="M30 15C30 23.2843 23.2843 30 15 30C6.71573 30 0 23.2843 0 15C0 6.7157 6.71573 0 15 0C23.2843 0 30 6.7157 30 15ZM10.4544 13.5455C10.4544 13.1438 10.78 12.8182 11.1817 12.8182H13.3635C13.7652 12.8182 14.0908 13.1438 14.0908 13.5455C14.0908 13.9471 13.7652 14.2727 13.3635 14.2727H11.1817C10.78 14.2727 10.4544 13.9471 10.4544 13.5455ZM11.1817 9.90906C10.78 9.90906 10.4544 10.2347 10.4544 10.6364C10.4544 11.038 10.78 11.3636 11.1817 11.3636H13.3635C13.7652 11.3636 14.0908 11.038 14.0908 10.6364C14.0908 10.2347 13.7652 9.90906 13.3635 9.90906H11.1817ZM10.4544 16.4545C10.4544 16.0529 10.78 15.7273 11.1817 15.7273H18.4544C18.8561 15.7273 19.1817 16.0529 19.1817 16.4545C19.1817 16.8562 18.8561 17.1818 18.4544 17.1818H11.1817C10.78 17.1818 10.4544 16.8562 10.4544 16.4545ZM11.1817 18.6364C10.78 18.6364 10.4544 18.962 10.4544 19.3636C10.4544 19.7653 10.78 20.0909 11.1817 20.0909H18.4544C18.8561 20.0909 19.1817 19.7653 19.1817 19.3636C19.1817 18.962 18.8561 18.6364 18.4544 18.6364H11.1817ZM19.1818 12.0909C19.1818 13.2959 18.205 14.2727 17 14.2727C15.795 14.2727 14.8181 13.2959 14.8181 12.0909C14.8181 10.8859 15.795 9.90906 17 9.90906C18.205 9.90906 19.1818 10.8859 19.1818 12.0909ZM9 5C7.89542 5 7 5.89545 7 7V23C7 24.1046 7.89542 25 9 25H20.6364C21.7409 25 22.6364 24.1046 22.6364 23V10.6364C22.6364 10.1465 22.4566 9.67377 22.1312 9.30762L18.8989 5.67126C18.5193 5.24432 17.9753 5 17.4041 5H9ZM9 8V22C9.00146 22.8131 9.26031 23.0062 10 23H20C20.5 23 20.6364 22.6133 20.6364 22.0211V11.543C20.6364 11.0244 20.3131 10.6364 20.2325 10.5557C20.1857 10.509 19.3562 9.57892 18.6201 8.7536C18.0859 8.15479 17.601 7.61108 17.5 7.5C17.1887 7.15759 17 7 16 7H10C9.46603 7 9.216 6.98981 9.09949 7.1095C8.98288 7.22931 9 7.47931 9 8Z" fill="white"/>
</svg>
