<svg width="30" height="30" viewBox="0 0 30 30" fill="none" xmlns="http://www.w3.org/2000/svg">
<g clip-path="url(#clip0_108_55)">
<path d="M15.0001 0C6.71688 0 0 6.88556 0 15.3797C0 22.1749 4.29799 27.9399 10.258 29.9736C11.0077 30.1159 11.2829 29.6399 11.2829 29.2337C11.2829 28.867 11.269 27.6554 11.2625 26.3703C7.08944 27.3007 6.2089 24.5557 6.2089 24.5557C5.52656 22.778 4.54341 22.3053 4.54341 22.3053C3.18244 21.3508 4.64599 21.3704 4.64599 21.3704C6.15227 21.4789 6.94538 22.9553 6.94538 22.9553C8.28325 25.3065 10.4545 24.6268 11.3104 24.2338C11.4451 23.2397 11.8338 22.5613 12.2628 22.1772C8.93106 21.7883 5.42869 20.4696 5.42869 14.5765C5.42869 12.8974 6.01466 11.5254 6.97419 10.4484C6.81844 10.061 6.305 8.49669 7.1195 6.37825C7.1195 6.37825 8.37912 5.96491 11.2456 7.95475C12.4421 7.614 13.7254 7.44306 15.0001 7.43725C16.2749 7.44306 17.5591 7.614 18.7579 7.95475C21.6209 5.96491 22.8787 6.37825 22.8787 6.37825C23.6952 8.49669 23.1816 10.061 23.0258 10.4484C23.9876 11.5254 24.5696 12.8974 24.5696 14.5765C24.5696 20.4836 21.0605 21.7843 17.7203 22.165C18.2583 22.6423 18.7378 23.5783 18.7378 25.0131C18.7378 27.0709 18.7204 28.7271 18.7204 29.2337C18.7204 29.643 18.9904 30.1226 19.7507 29.9715C25.7075 27.9356 30 22.1726 30 15.3797C30 6.88556 23.2841 0 15.0001 0Z" fill="white"/>
<path d="M5.7252 21.9764C5.69222 22.0521 5.5752 22.0748 5.46858 22.0228C5.35999 21.9731 5.299 21.87 5.3342 21.7941C5.36643 21.7162 5.48371 21.6945 5.59205 21.7467C5.7009 21.7964 5.76288 21.9005 5.7252 21.9764Z" fill="#161514"/>
<path d="M6.33214 22.6644C6.2607 22.7317 6.12112 22.7004 6.02642 22.594C5.92848 22.4879 5.91014 22.3459 5.98253 22.2776C6.05617 22.2102 6.19154 22.2417 6.2897 22.3479C6.38764 22.4553 6.40676 22.5963 6.33214 22.6644Z" fill="#161514"/>
<path d="M6.92254 23.5414C6.83079 23.6063 6.68079 23.5455 6.5881 23.4101C6.49635 23.2746 6.49635 23.1122 6.59004 23.0472C6.68304 22.9821 6.83079 23.0406 6.92479 23.1751C7.01629 23.3128 7.01629 23.4751 6.92254 23.5414Z" fill="#161514"/>
<path d="M7.73145 24.3887C7.64938 24.4807 7.47463 24.4561 7.34669 24.3304C7.21576 24.2076 7.17932 24.0334 7.26163 23.9414C7.34469 23.8491 7.52045 23.8751 7.64938 23.9996C7.77932 24.1222 7.81901 24.2977 7.73145 24.3887Z" fill="#161514"/>
<path d="M8.84696 24.8807C8.81077 25 8.64246 25.0542 8.47284 25.0035C8.30352 24.9513 8.19271 24.8116 8.2269 24.6911C8.26209 24.5711 8.43121 24.5146 8.60202 24.5687C8.77109 24.6207 8.88221 24.7594 8.84696 24.8807Z" fill="#161514"/>
<path d="M10.0721 24.972C10.0763 25.0976 9.93252 25.2018 9.75446 25.204C9.57546 25.2081 9.43065 25.1064 9.42871 24.9829C9.42871 24.856 9.56927 24.7529 9.74827 24.7499C9.92627 24.7463 10.0721 24.8472 10.0721 24.972Z" fill="#161514"/>
<path d="M11.2126 24.7745C11.2339 24.8971 11.1102 25.0229 10.9334 25.0564C10.7596 25.0887 10.5987 25.0131 10.5766 24.8915C10.5551 24.7659 10.681 24.6401 10.8546 24.6076C11.0316 24.5763 11.19 24.6499 11.2126 24.7745Z" fill="#161514"/>
</g>
<defs>
<clipPath id="clip0_108_55">
<rect width="30" height="30" fill="white"/>
</clipPath>
</defs>
</svg>
