<svg width="30" height="30" viewBox="0 0 30 30" fill="none" xmlns="http://www.w3.org/2000/svg">
<g clip-path="url(#clip0_111_32)">
<path d="M17.7325 12.8684C16.4492 12.8684 15.8746 13.5741 15.5538 14.0695V13.04H13.1357C13.1672 13.7215 13.1357 20.3152 13.1357 20.3152H15.5538V16.2513C15.5538 16.0338 15.5689 15.8163 15.6329 15.6616C15.8081 15.2266 16.2057 14.7764 16.874 14.7764C17.7488 14.7764 18.0987 15.4441 18.0987 16.4217V20.3146H20.5167H20.5173V16.1419C20.5173 13.9082 19.324 12.8684 17.7325 12.8684ZM15.5532 14.0949H15.5375C15.5429 14.0864 15.5489 14.0786 15.5532 14.0701V14.0949Z" fill="white"/>
<path d="M11.7969 13.04H9.37891V20.3152H11.7969V13.04Z" fill="white"/>
<path d="M15 0C6.72903 0 0 6.72903 0 15C0 23.271 6.72903 30 15 30C23.271 30 30 23.271 30 15C30 6.72903 23.271 0 15 0ZM22.9544 21.7846C22.9544 22.4215 22.4251 22.9387 21.7707 22.9387H8.12716C7.47462 22.9387 6.94474 22.4221 6.94474 21.7846V7.98216C6.94474 7.34472 7.47462 6.82812 8.12716 6.82812H21.7707C22.4245 6.82812 22.9544 7.34532 22.9544 7.98216V21.7846Z" fill="white"/>
<path d="M10.6042 9.53255C9.7777 9.53255 9.23633 10.0751 9.23633 10.7893C9.23633 11.4872 9.76138 12.046 10.5722 12.046H10.5879C11.4314 12.046 11.9565 11.4872 11.9565 10.7893C11.9401 10.0757 11.432 9.53255 10.6042 9.53255Z" fill="white"/>
</g>
<defs>
<clipPath id="clip0_111_32">
<rect width="30" height="30" fill="white"/>
</clipPath>
</defs>
</svg>
